# xmcd
#
# Track frame offsets: 
#        150
#        22077
#        35127
#        47107
#        60822
#        74867
#        96400
#        117055
#        135190
#        149027
#        161655
#        170062
#        181540
#        195365
#        222207
#        234342
#        262262
#        272772
#        286982
#        300080
#
# Disc length: 4224 seconds
#
# Revision: 1
# Processed by: cddbd v1.5.2PL0 Copyright (c) Steve Scherf et al.
# Submitted via: ExactAudioCopyFreeDBPlugin 1.0
#
DISCID=26107e14
DTITLE=Various Artist - The Best Of Blues
DYEAR=2005
DGENRE=Blues
TTITLE0=B.B. King - The Thrill Is Gone
TTITLE1=Muddy Waters - Mannish Boy
TTITLE2=John Lee Hooker - Crawling King Snake
TTITLE3=Jimmy Reed - Dust My Broom
TTITLE4=Howlin' Wolf - Smokestack Lightning
TTITLE5=Sonny Terry and Brownie McGhee - Blues For The Lowlands
TTITLE6=Big Joe Turner - Stormy Monday Blues
TTITLE7=Lightnin' Hopkins - Shake That Thing
TTITLE8=Memphis Slim - Trouble In Mind
TTITLE9=Albert King - California Blues
TTITLE10=Joe Williams - Baby Please Don't Go
TTITLE11=Little Walter - My Babe
TTITLE12=Willie Dixon - Walking The Blues
TTITLE13=Otis Rush - It's Hard For Me To Believe My Baby
TTITLE14=John Lee Hooker - I'm In The Mood
TTITLE15=B.B. King - Payin' The Cost To Be The Boss
TTITLE16=Sonny Boy Williamson - Let Your Conscience Be Your Guide
TTITLE17=Willie Mabon - I Don't Know
TTITLE18=Bukka White - Parchman Farm
TTITLE19=James Cotton Blues Band - There Is Something On Your Mind
EXTD=
EXTT0=
EXTT1=
EXTT2=
EXTT3=
EXTT4=
EXTT5=
EXTT6=
EXTT7=
EXTT8=
EXTT9=
EXTT10=
EXTT11=
EXTT12=
EXTT13=
EXTT14=
EXTT15=
EXTT16=
EXTT17=
EXTT18=
EXTT19=
PLAYORDER=
